<svg xmlns="http://www.w3.org/2000/svg" viewBox="0 0 24 24">
  <path fill="#0A66C2" d="M22.23 0H1.77C.79 0 0 .77 0 1.72v20.56C0 23.23.79 24 1.77 24h20.46c.98 0 1.77-.77 1.77-1.72V1.72C24 .77 23.21 0 22.23 0zM7.12 20.45H3.56V9h3.56v11.45zM5.34 7.43c-1.14 0-2.06-.93-2.06-2.07S4.2 3.29 5.34 3.29s2.07.93 2.07 2.07-.93 2.07-2.07 2.07zm15.11 13.02h-3.56v-5.57c0-1.33-.03-3.05-1.86-3.05-1.86 0-2.15 1.45-2.15 2.95v5.67H9.32V9h3.42v1.56h.05c.48-.9 1.64-1.86 3.37-1.86 3.61 0 4.28 2.38 4.28 5.48v6.27z"/>
</svg>
