<svg xmlns="http://www.w3.org/2000/svg" xmlns:xlink="http://www.w3.org/1999/xlink" width="4000" zoomAndPan="magnify" viewBox="0 0 3000 899.99999" height="1200" preserveAspectRatio="xMidYMid meet" version="1.0"><defs><g/><clipPath id="342a4f579e"><path d="M 0.160156 0.199219 L 2743.601562 0.199219 L 2743.601562 615 L 0.160156 615 Z M 0.160156 0.199219 " clip-rule="nonzero"/></clipPath><clipPath id="a453d494bb"><rect x="0" width="2744" y="0" height="615"/></clipPath><clipPath id="cd1024f28c"><path d="M 80 57 L 119 57 L 119 418.71875 L 80 418.71875 Z M 80 57 " clip-rule="nonzero"/></clipPath><clipPath id="bd3e54ffe8"><rect x="0" width="200" y="0" height="419"/></clipPath><clipPath id="6abf61e118"><path d="M 7 539 L 2584 539 L 2584 672.199219 L 7 672.199219 Z M 7 539 " clip-rule="nonzero"/></clipPath><clipPath id="118ef49e30"><rect x="0" width="2577" y="0" height="134"/></clipPath><clipPath id="467b2d0f93"><rect x="0" width="2744" y="0" height="673"/></clipPath></defs><rect x="-300" width="3600" fill="#ffffff" y="-89.999999" height="1079.999988" fill-opacity="1"/><rect x="-300" width="3600" fill="#ffffff" y="-89.999999" height="1079.999988" fill-opacity="1"/><g transform="matrix(1, 0, 0, 1, 188, 85)"><g clip-path="url(#467b2d0f93)"><g clip-path="url(#342a4f579e)"><g transform="matrix(1, 0, 0, 1, -0.000000000000028422, 0.000000000000085265)"><g clip-path="url(#a453d494bb)"><g fill="#17224d" fill-opacity="1"><g transform="translate(0.784439, 487.404287)"><g><path d="M 157.859375 6.046875 C 129.953125 6.046875 102.96875 2.265625 76.90625 -5.296875 C 50.851562 -12.859375 29.925781 -22.691406 14.125 -34.796875 L 41.859375 -96.328125 C 56.992188 -85.234375 74.984375 -76.320312 95.828125 -69.59375 C 116.671875 -62.875 137.515625 -59.515625 158.359375 -59.515625 C 181.554688 -59.515625 198.703125 -62.957031 209.796875 -69.84375 C 220.898438 -76.738281 226.453125 -85.90625 226.453125 -97.34375 C 226.453125 -105.75 223.171875 -112.722656 216.609375 -118.265625 C 210.054688 -123.816406 201.648438 -128.269531 191.390625 -131.625 C 181.140625 -134.988281 167.273438 -138.691406 149.796875 -142.734375 C 122.890625 -149.117188 100.863281 -155.503906 83.71875 -161.890625 C 66.570312 -168.285156 51.863281 -178.539062 39.59375 -192.65625 C 27.320312 -206.78125 21.1875 -225.609375 21.1875 -249.140625 C 21.1875 -269.648438 26.734375 -288.226562 37.828125 -304.875 C 48.921875 -321.519531 65.644531 -334.71875 88 -344.46875 C 110.363281 -354.21875 137.6875 -359.09375 169.96875 -359.09375 C 192.488281 -359.09375 214.507812 -356.398438 236.03125 -351.015625 C 257.550781 -345.640625 276.378906 -337.910156 292.515625 -327.828125 L 267.296875 -265.796875 C 234.679688 -284.285156 202.066406 -293.53125 169.453125 -293.53125 C 146.597656 -293.53125 129.703125 -289.832031 118.765625 -282.4375 C 107.835938 -275.039062 102.375 -265.289062 102.375 -253.1875 C 102.375 -241.082031 108.675781 -232.085938 121.28125 -226.203125 C 133.894531 -220.316406 153.148438 -214.515625 179.046875 -208.796875 C 205.941406 -202.410156 227.960938 -196.019531 245.109375 -189.625 C 262.253906 -183.238281 276.960938 -173.148438 289.234375 -159.359375 C 301.515625 -145.578125 307.65625 -126.921875 307.65625 -103.390625 C 307.65625 -83.210938 302.019531 -64.800781 290.75 -48.15625 C 279.488281 -31.519531 262.59375 -18.328125 240.0625 -8.578125 C 217.539062 1.171875 190.140625 6.046875 157.859375 6.046875 Z M 157.859375 6.046875 "/></g></g></g><g fill="#17224d" fill-opacity="1"><g transform="translate(322.551875, 487.404287)"><g><path d="M 210.8125 6.046875 C 174.832031 6.046875 142.300781 -1.769531 113.21875 -17.40625 C 84.132812 -33.039062 61.269531 -54.722656 44.625 -82.453125 C 27.988281 -110.191406 19.671875 -141.546875 19.671875 -176.515625 C 19.671875 -211.484375 27.988281 -242.835938 44.625 -270.578125 C 61.269531 -298.316406 84.132812 -320.003906 113.21875 -335.640625 C 142.300781 -351.273438 175 -359.09375 211.3125 -359.09375 C 241.914062 -359.09375 269.570312 -353.710938 294.28125 -342.953125 C 319 -332.191406 339.765625 -316.722656 356.578125 -296.546875 L 304.125 -248.140625 C 280.25 -275.710938 250.660156 -289.5 215.359375 -289.5 C 193.503906 -289.5 174 -284.707031 156.84375 -275.125 C 139.695312 -265.539062 126.332031 -252.171875 116.75 -235.015625 C 107.164062 -217.867188 102.375 -198.367188 102.375 -176.515625 C 102.375 -154.660156 107.164062 -135.160156 116.75 -118.015625 C 126.332031 -100.867188 139.695312 -87.503906 156.84375 -77.921875 C 174 -68.335938 193.503906 -63.546875 215.359375 -63.546875 C 250.660156 -63.546875 280.25 -77.5 304.125 -105.40625 L 356.578125 -56.984375 C 339.765625 -36.472656 318.914062 -20.835938 294.03125 -10.078125 C 269.15625 0.671875 241.414062 6.046875 210.8125 6.046875 Z M 210.8125 6.046875 "/></g></g></g><g fill="#17224d" fill-opacity="1"><g transform="translate(692.231517, 487.404287)"><g><path d="M 194.671875 -353.046875 C 225.941406 -353.046875 253.09375 -347.832031 276.125 -337.40625 C 299.15625 -326.976562 316.890625 -312.179688 329.328125 -293.015625 C 341.773438 -273.859375 348 -251.164062 348 -224.9375 C 348 -199.050781 341.773438 -176.441406 329.328125 -157.109375 C 316.890625 -137.773438 299.15625 -122.976562 276.125 -112.71875 C 253.09375 -102.46875 225.941406 -97.34375 194.671875 -97.34375 L 123.5625 -97.34375 L 123.5625 0 L 41.859375 0 L 41.859375 -353.046875 Z M 190.140625 -163.90625 C 214.679688 -163.90625 233.335938 -169.203125 246.109375 -179.796875 C 258.890625 -190.390625 265.28125 -205.4375 265.28125 -224.9375 C 265.28125 -244.769531 258.890625 -259.984375 246.109375 -270.578125 C 233.335938 -281.171875 214.679688 -286.46875 190.140625 -286.46875 L 123.5625 -286.46875 L 123.5625 -163.90625 Z M 190.140625 -163.90625 "/></g></g></g><g fill="#17224d" fill-opacity="1"><g transform="translate(1061.410859, 487.404287)"><g/></g></g><g fill="#17224d" fill-opacity="1"><g transform="translate(1204.138442, 487.404287)"><g/></g></g><g fill="#17224d" fill-opacity="1"><g transform="translate(1346.867772, 487.404287)"><g><path d="M 283.4375 -66.578125 L 283.4375 0 L 16.640625 0 L 16.640625 -52.953125 L 152.8125 -181.5625 C 167.269531 -195.34375 177.019531 -207.191406 182.0625 -217.109375 C 187.113281 -227.035156 189.640625 -236.875 189.640625 -246.625 C 189.640625 -260.75 184.847656 -271.59375 175.265625 -279.15625 C 165.679688 -286.71875 151.640625 -290.5 133.140625 -290.5 C 117.679688 -290.5 103.726562 -287.554688 91.28125 -281.671875 C 78.84375 -275.785156 68.421875 -266.960938 60.015625 -255.203125 L 0.5 -293.53125 C 14.289062 -314.039062 33.289062 -330.09375 57.5 -341.6875 C 81.707031 -353.289062 109.445312 -359.09375 140.71875 -359.09375 C 166.9375 -359.09375 189.878906 -354.804688 209.546875 -346.234375 C 229.222656 -337.660156 244.523438 -325.554688 255.453125 -309.921875 C 266.378906 -294.285156 271.84375 -275.875 271.84375 -254.6875 C 271.84375 -235.53125 267.804688 -217.546875 259.734375 -200.734375 C 251.660156 -183.921875 236.023438 -164.753906 212.828125 -143.234375 L 131.640625 -66.578125 Z M 283.4375 -66.578125 "/></g></g></g><g fill="#17224d" fill-opacity="1"><g transform="translate(1643.418361, 487.404287)"><g><path d="M 170.96875 6.046875 C 141.71875 6.046875 115.660156 -1.179688 92.796875 -15.640625 C 69.929688 -30.097656 52.023438 -51.023438 39.078125 -78.421875 C 26.140625 -105.828125 19.671875 -138.523438 19.671875 -176.515625 C 19.671875 -214.515625 26.140625 -247.210938 39.078125 -274.609375 C 52.023438 -302.015625 69.929688 -322.945312 92.796875 -337.40625 C 115.660156 -351.863281 141.71875 -359.09375 170.96875 -359.09375 C 200.21875 -359.09375 226.273438 -351.863281 249.140625 -337.40625 C 272.003906 -322.945312 289.910156 -302.015625 302.859375 -274.609375 C 315.804688 -247.210938 322.28125 -214.515625 322.28125 -176.515625 C 322.28125 -138.523438 315.804688 -105.828125 302.859375 -78.421875 C 289.910156 -51.023438 272.003906 -30.097656 249.140625 -15.640625 C 226.273438 -1.179688 200.21875 6.046875 170.96875 6.046875 Z M 170.96875 -63.046875 C 192.488281 -63.046875 209.382812 -72.289062 221.65625 -90.78125 C 233.925781 -109.269531 240.0625 -137.847656 240.0625 -176.515625 C 240.0625 -215.179688 233.925781 -243.757812 221.65625 -262.25 C 209.382812 -280.75 192.488281 -290 170.96875 -290 C 149.789062 -290 133.0625 -280.75 120.78125 -262.25 C 108.507812 -243.757812 102.375 -215.179688 102.375 -176.515625 C 102.375 -137.847656 108.507812 -109.269531 120.78125 -90.78125 C 133.0625 -72.289062 149.789062 -63.046875 170.96875 -63.046875 Z M 170.96875 -63.046875 "/></g></g></g><g fill="#17224d" fill-opacity="1"><g transform="translate(1982.837727, 487.404287)"><g><path d="M 283.4375 -66.578125 L 283.4375 0 L 16.640625 0 L 16.640625 -52.953125 L 152.8125 -181.5625 C 167.269531 -195.34375 177.019531 -207.191406 182.0625 -217.109375 C 187.113281 -227.035156 189.640625 -236.875 189.640625 -246.625 C 189.640625 -260.75 184.847656 -271.59375 175.265625 -279.15625 C 165.679688 -286.71875 151.640625 -290.5 133.140625 -290.5 C 117.679688 -290.5 103.726562 -287.554688 91.28125 -281.671875 C 78.84375 -275.785156 68.421875 -266.960938 60.015625 -255.203125 L 0.5 -293.53125 C 14.289062 -314.039062 33.289062 -330.09375 57.5 -341.6875 C 81.707031 -353.289062 109.445312 -359.09375 140.71875 -359.09375 C 166.9375 -359.09375 189.878906 -354.804688 209.546875 -346.234375 C 229.222656 -337.660156 244.523438 -325.554688 255.453125 -309.921875 C 266.378906 -294.285156 271.84375 -275.875 271.84375 -254.6875 C 271.84375 -235.53125 267.804688 -217.546875 259.734375 -200.734375 C 251.660156 -183.921875 236.023438 -164.753906 212.828125 -143.234375 L 131.640625 -66.578125 Z M 283.4375 -66.578125 "/></g></g></g><g fill="#17224d" fill-opacity="1"><g transform="translate(2279.388265, 487.404287)"><g><path d="M 189.640625 -221.40625 C 212.160156 -221.40625 232.664062 -216.863281 251.15625 -207.78125 C 269.65625 -198.707031 284.285156 -185.847656 295.046875 -169.203125 C 305.804688 -152.566406 311.1875 -133.316406 311.1875 -111.453125 C 311.1875 -87.921875 305.300781 -67.242188 293.53125 -49.421875 C 281.757812 -31.609375 265.703125 -17.910156 245.359375 -8.328125 C 225.015625 1.253906 202.40625 6.046875 177.53125 6.046875 C 128.101562 6.046875 89.4375 -9.082031 61.53125 -39.34375 C 33.625 -69.601562 19.671875 -112.804688 19.671875 -168.953125 C 19.671875 -208.960938 27.234375 -243.253906 42.359375 -271.828125 C 57.492188 -300.410156 78.59375 -322.097656 105.65625 -336.890625 C 132.726562 -351.691406 164.082031 -359.09375 199.71875 -359.09375 C 218.550781 -359.09375 236.625 -356.988281 253.9375 -352.78125 C 271.25 -348.582031 285.957031 -342.617188 298.0625 -334.890625 L 267.8125 -274.875 C 250.320312 -286.632812 228.296875 -292.515625 201.734375 -292.515625 C 171.804688 -292.515625 148.101562 -283.769531 130.625 -266.28125 C 113.144531 -248.800781 103.726562 -223.421875 102.375 -190.140625 C 123.226562 -210.984375 152.316406 -221.40625 189.640625 -221.40625 Z M 172.984375 -54.96875 C 190.472656 -54.96875 204.679688 -59.675781 215.609375 -69.09375 C 226.535156 -78.507812 232 -91.285156 232 -107.421875 C 232 -123.566406 226.535156 -136.425781 215.609375 -146 C 204.679688 -155.582031 190.140625 -160.375 171.984375 -160.375 C 154.160156 -160.375 139.53125 -155.414062 128.09375 -145.5 C 116.664062 -135.582031 110.953125 -122.890625 110.953125 -107.421875 C 110.953125 -91.953125 116.5 -79.34375 127.59375 -69.59375 C 138.695312 -59.84375 153.828125 -54.96875 172.984375 -54.96875 Z M 172.984375 -54.96875 "/></g></g></g><g fill="#17224d" fill-opacity="1"><g transform="translate(2600.65351, 487.404287)"><g/></g></g></g></g></g><g transform="matrix(1, 0, 0, 1, 1102, 79)"><g clip-path="url(#bd3e54ffe8)"><g clip-path="url(#cd1024f28c)"><g fill="#d6a43f" fill-opacity="1"><g transform="translate(0.167644, 330.101319)"><g><path d="M 86.84375 83.578125 C 84.914062 82.140625 83.347656 80.273438 82.140625 77.984375 C 80.929688 75.691406 80.328125 73.21875 80.328125 70.5625 L 80.328125 -255.09375 C 80.328125 -257.75 80.929688 -260.222656 82.140625 -262.515625 C 83.347656 -264.804688 84.914062 -266.675781 86.84375 -268.125 C 88.769531 -269.570312 90.816406 -270.65625 92.984375 -271.375 C 95.160156 -272.101562 97.332031 -272.46875 99.5 -272.46875 C 101.675781 -272.46875 103.789062 -272.101562 105.84375 -271.375 C 107.894531 -270.65625 109.882812 -269.691406 111.8125 -268.484375 C 113.738281 -266.796875 115.363281 -264.804688 116.6875 -262.515625 C 118.019531 -260.222656 118.6875 -257.75 118.6875 -255.09375 L 118.6875 70.5625 C 118.6875 73.21875 118.019531 75.691406 116.6875 77.984375 C 115.363281 80.273438 113.738281 82.265625 111.8125 83.953125 C 109.882812 85.148438 107.894531 86.109375 105.84375 86.828125 C 103.789062 87.554688 101.675781 87.921875 99.5 87.921875 C 98.0625 87.921875 96.617188 87.738281 95.171875 87.375 C 93.722656 87.019531 92.273438 86.539062 90.828125 85.9375 C 89.378906 85.332031 88.050781 84.546875 86.84375 83.578125 Z M 86.84375 83.578125 "/></g></g></g></g></g></g><g clip-path="url(#6abf61e118)"><g transform="matrix(1, 0, 0, 1, 7, 539)"><g clip-path="url(#118ef49e30)"><g fill="#17224d" fill-opacity="1"><g transform="translate(0.934749, 104.969535)"><g><path d="M 33.53125 0.65625 C 27.851562 0.65625 22.410156 -0.253906 17.203125 -2.078125 C 11.992188 -3.898438 7.972656 -6.300781 5.140625 -9.28125 L 8.296875 -15.515625 C 11.066406 -12.742188 14.742188 -10.5 19.328125 -8.78125 C 23.921875 -7.070312 28.65625 -6.21875 33.53125 -6.21875 C 40.375 -6.21875 45.503906 -7.472656 48.921875 -9.984375 C 52.347656 -12.503906 54.0625 -15.765625 54.0625 -19.765625 C 54.0625 -22.828125 53.132812 -25.265625 51.28125 -27.078125 C 49.425781 -28.898438 47.148438 -30.300781 44.453125 -31.28125 C 41.753906 -32.269531 38.003906 -33.347656 33.203125 -34.515625 C 27.453125 -35.972656 22.863281 -37.375 19.4375 -38.71875 C 16.019531 -40.0625 13.085938 -42.117188 10.640625 -44.890625 C 8.203125 -47.660156 6.984375 -51.410156 6.984375 -56.140625 C 6.984375 -59.992188 8.003906 -63.503906 10.046875 -66.671875 C 12.085938 -69.835938 15.21875 -72.367188 19.4375 -74.265625 C 23.664062 -76.160156 28.910156 -77.109375 35.171875 -77.109375 C 39.535156 -77.109375 43.8125 -76.503906 48 -75.296875 C 52.1875 -74.097656 55.8125 -72.445312 58.875 -70.34375 L 56.140625 -63.890625 C 52.929688 -66.003906 49.503906 -67.585938 45.859375 -68.640625 C 42.222656 -69.703125 38.660156 -70.234375 35.171875 -70.234375 C 28.472656 -70.234375 23.429688 -68.9375 20.046875 -66.34375 C 16.660156 -63.757812 14.96875 -60.429688 14.96875 -56.359375 C 14.96875 -53.296875 15.894531 -50.835938 17.75 -48.984375 C 19.601562 -47.128906 21.929688 -45.707031 24.734375 -44.71875 C 27.535156 -43.738281 31.304688 -42.664062 36.046875 -41.5 C 41.648438 -40.113281 46.179688 -38.75 49.640625 -37.40625 C 53.097656 -36.0625 56.023438 -34.023438 58.421875 -31.296875 C 60.828125 -28.566406 62.03125 -24.867188 62.03125 -20.203125 C 62.03125 -16.347656 60.992188 -12.835938 58.921875 -9.671875 C 56.847656 -6.503906 53.660156 -3.988281 49.359375 -2.125 C 45.066406 -0.269531 39.789062 0.65625 33.53125 0.65625 Z M 33.53125 0.65625 "/></g></g></g><g fill="#17224d" fill-opacity="1"><g transform="translate(68.102372, 104.969535)"><g><path d="M 45.875 0.65625 C 38.300781 0.65625 31.4375 -1.035156 25.28125 -4.421875 C 19.132812 -7.804688 14.328125 -12.445312 10.859375 -18.34375 C 7.398438 -24.25 5.671875 -30.878906 5.671875 -38.234375 C 5.671875 -45.578125 7.398438 -52.195312 10.859375 -58.09375 C 14.328125 -64 19.132812 -68.644531 25.28125 -72.03125 C 31.4375 -75.414062 38.300781 -77.109375 45.875 -77.109375 C 53.445312 -77.109375 60.269531 -75.429688 66.34375 -72.078125 C 72.425781 -68.734375 77.210938 -64.09375 80.703125 -58.15625 C 84.203125 -52.21875 85.953125 -45.578125 85.953125 -38.234375 C 85.953125 -30.878906 84.203125 -24.234375 80.703125 -18.296875 C 77.210938 -12.359375 72.425781 -7.710938 66.34375 -4.359375 C 60.269531 -1.015625 53.445312 0.65625 45.875 0.65625 Z M 45.875 -6.546875 C 51.914062 -6.546875 57.375 -7.910156 62.25 -10.640625 C 67.132812 -13.378906 70.957031 -17.164062 73.71875 -22 C 76.488281 -26.84375 77.875 -32.253906 77.875 -38.234375 C 77.875 -44.203125 76.488281 -49.601562 73.71875 -54.4375 C 70.957031 -59.28125 67.132812 -63.066406 62.25 -65.796875 C 57.375 -68.535156 51.914062 -69.90625 45.875 -69.90625 C 39.832031 -69.90625 34.351562 -68.535156 29.4375 -65.796875 C 24.519531 -63.066406 20.660156 -59.28125 17.859375 -54.4375 C 15.054688 -49.601562 13.65625 -44.203125 13.65625 -38.234375 C 13.65625 -32.253906 15.054688 -26.84375 17.859375 -22 C 20.660156 -17.164062 24.519531 -13.378906 29.4375 -10.640625 C 34.351562 -7.910156 39.832031 -6.546875 45.875 -6.546875 Z M 45.875 -6.546875 "/></g></g></g><g fill="#17224d" fill-opacity="1"><g transform="translate(159.734306, 104.969535)"><g><path d="M 45.65625 0.65625 C 38.082031 0.65625 31.253906 -1.015625 25.171875 -4.359375 C 19.097656 -7.710938 14.328125 -12.359375 10.859375 -18.296875 C 7.398438 -24.234375 5.671875 -30.878906 5.671875 -38.234375 C 5.671875 -45.578125 7.398438 -52.21875 10.859375 -58.15625 C 14.328125 -64.09375 19.117188 -68.734375 25.234375 -72.078125 C 31.347656 -75.429688 38.191406 -77.109375 45.765625 -77.109375 C 51.441406 -77.109375 56.679688 -76.160156 61.484375 -74.265625 C 66.296875 -72.367188 70.375 -69.601562 73.71875 -65.96875 L 68.59375 -60.828125 C 62.625 -66.878906 55.085938 -69.90625 45.984375 -69.90625 C 39.941406 -69.90625 34.441406 -68.519531 29.484375 -65.75 C 24.535156 -62.976562 20.660156 -59.191406 17.859375 -54.390625 C 15.054688 -49.585938 13.65625 -44.203125 13.65625 -38.234375 C 13.65625 -32.253906 15.054688 -26.863281 17.859375 -22.0625 C 20.660156 -17.257812 24.535156 -13.472656 29.484375 -10.703125 C 34.441406 -7.929688 39.941406 -6.546875 45.984375 -6.546875 C 55.160156 -6.546875 62.695312 -9.609375 68.59375 -15.734375 L 73.71875 -10.59375 C 70.375 -6.957031 66.28125 -4.171875 61.4375 -2.234375 C 56.59375 -0.304688 51.332031 0.65625 45.65625 0.65625 Z M 45.65625 0.65625 "/></g></g></g><g fill="#17224d" fill-opacity="1"><g transform="translate(238.26036, 104.969535)"><g><path d="M 12.453125 -76.453125 L 20.53125 -76.453125 L 20.53125 0 L 12.453125 0 Z M 12.453125 -76.453125 "/></g></g></g><g fill="#17224d" fill-opacity="1"><g transform="translate(271.243489, 104.969535)"><g><path d="M 45.875 0.65625 C 38.300781 0.65625 31.4375 -1.035156 25.28125 -4.421875 C 19.132812 -7.804688 14.328125 -12.445312 10.859375 -18.34375 C 7.398438 -24.25 5.671875 -30.878906 5.671875 -38.234375 C 5.671875 -45.578125 7.398438 -52.195312 10.859375 -58.09375 C 14.328125 -64 19.132812 -68.644531 25.28125 -72.03125 C 31.4375 -75.414062 38.300781 -77.109375 45.875 -77.109375 C 53.445312 -77.109375 60.269531 -75.429688 66.34375 -72.078125 C 72.425781 -68.734375 77.210938 -64.09375 80.703125 -58.15625 C 84.203125 -52.21875 85.953125 -45.578125 85.953125 -38.234375 C 85.953125 -30.878906 84.203125 -24.234375 80.703125 -18.296875 C 77.210938 -12.359375 72.425781 -7.710938 66.34375 -4.359375 C 60.269531 -1.015625 53.445312 0.65625 45.875 0.65625 Z M 45.875 -6.546875 C 51.914062 -6.546875 57.375 -7.910156 62.25 -10.640625 C 67.132812 -13.378906 70.957031 -17.164062 73.71875 -22 C 76.488281 -26.84375 77.875 -32.253906 77.875 -38.234375 C 77.875 -44.203125 76.488281 -49.601562 73.71875 -54.4375 C 70.957031 -59.28125 67.132812 -63.066406 62.25 -65.796875 C 57.375 -68.535156 51.914062 -69.90625 45.875 -69.90625 C 39.832031 -69.90625 34.351562 -68.535156 29.4375 -65.796875 C 24.519531 -63.066406 20.660156 -59.28125 17.859375 -54.4375 C 15.054688 -49.601562 13.65625 -44.203125 13.65625 -38.234375 C 13.65625 -32.253906 15.054688 -26.84375 17.859375 -22 C 20.660156 -17.164062 24.519531 -13.378906 29.4375 -10.640625 C 34.351562 -7.910156 39.832031 -6.546875 45.875 -6.546875 Z M 45.875 -6.546875 "/></g></g></g><g fill="#17224d" fill-opacity="1"><g transform="translate(361.783235, 104.969535)"><g><path d="M 27.3125 -69.46875 L 0.4375 -69.46875 L 0.4375 -76.453125 L 62.25 -76.453125 L 62.25 -69.46875 L 35.390625 -69.46875 L 35.390625 0 L 27.3125 0 Z M 27.3125 -69.46875 "/></g></g></g><g fill="#17224d" fill-opacity="1"><g transform="translate(424.473017, 104.969535)"><g><path d="M 66.515625 -6.984375 L 66.515625 0 L 12.453125 0 L 12.453125 -76.453125 L 64.875 -76.453125 L 64.875 -69.46875 L 20.53125 -69.46875 L 20.53125 -42.265625 L 60.078125 -42.265625 L 60.078125 -35.390625 L 20.53125 -35.390625 L 20.53125 -6.984375 Z M 66.515625 -6.984375 "/></g></g></g><g fill="#17224d" fill-opacity="1"><g transform="translate(497.101403, 104.969535)"><g><path d="M 45.65625 0.65625 C 38.082031 0.65625 31.253906 -1.015625 25.171875 -4.359375 C 19.097656 -7.710938 14.328125 -12.359375 10.859375 -18.296875 C 7.398438 -24.234375 5.671875 -30.878906 5.671875 -38.234375 C 5.671875 -45.578125 7.398438 -52.21875 10.859375 -58.15625 C 14.328125 -64.09375 19.117188 -68.734375 25.234375 -72.078125 C 31.347656 -75.429688 38.191406 -77.109375 45.765625 -77.109375 C 51.441406 -77.109375 56.679688 -76.160156 61.484375 -74.265625 C 66.296875 -72.367188 70.375 -69.601562 73.71875 -65.96875 L 68.59375 -60.828125 C 62.625 -66.878906 55.085938 -69.90625 45.984375 -69.90625 C 39.941406 -69.90625 34.441406 -68.519531 29.484375 -65.75 C 24.535156 -62.976562 20.660156 -59.191406 17.859375 -54.390625 C 15.054688 -49.585938 13.65625 -44.203125 13.65625 -38.234375 C 13.65625 -32.253906 15.054688 -26.863281 17.859375 -22.0625 C 20.660156 -17.257812 24.535156 -13.472656 29.484375 -10.703125 C 34.441406 -7.929688 39.941406 -6.546875 45.984375 -6.546875 C 55.160156 -6.546875 62.695312 -9.609375 68.59375 -15.734375 L 73.71875 -10.59375 C 70.375 -6.957031 66.28125 -4.171875 61.4375 -2.234375 C 56.59375 -0.304688 51.332031 0.65625 45.65625 0.65625 Z M 45.65625 0.65625 "/></g></g></g><g fill="#17224d" fill-opacity="1"><g transform="translate(575.627457, 104.969535)"><g><path d="M 76.34375 -76.453125 L 76.34375 0 L 68.375 0 L 68.375 -35.28125 L 20.53125 -35.28125 L 20.53125 0 L 12.453125 0 L 12.453125 -76.453125 L 20.53125 -76.453125 L 20.53125 -42.375 L 68.375 -42.375 L 68.375 -76.453125 Z M 76.34375 -76.453125 "/></g></g></g><g fill="#17224d" fill-opacity="1"><g transform="translate(664.4198, 104.969535)"><g><path d="M 76.34375 -76.453125 L 76.34375 0 L 69.6875 0 L 20.53125 -62.03125 L 20.53125 0 L 12.453125 0 L 12.453125 -76.453125 L 19.109375 -76.453125 L 68.375 -14.421875 L 68.375 -76.453125 Z M 76.34375 -76.453125 "/></g></g></g><g fill="#17224d" fill-opacity="1"><g transform="translate(753.212098, 104.969535)"><g><path d="M 12.453125 -76.453125 L 20.53125 -76.453125 L 20.53125 0 L 12.453125 0 Z M 12.453125 -76.453125 "/></g></g></g><g fill="#17224d" fill-opacity="1"><g transform="translate(786.195205, 104.969535)"><g><path d="M 45.65625 0.65625 C 38.082031 0.65625 31.253906 -1.015625 25.171875 -4.359375 C 19.097656 -7.710938 14.328125 -12.359375 10.859375 -18.296875 C 7.398438 -24.234375 5.671875 -30.878906 5.671875 -38.234375 C 5.671875 -45.578125 7.398438 -52.21875 10.859375 -58.15625 C 14.328125 -64.09375 19.117188 -68.734375 25.234375 -72.078125 C 31.347656 -75.429688 38.191406 -77.109375 45.765625 -77.109375 C 51.441406 -77.109375 56.679688 -76.160156 61.484375 -74.265625 C 66.296875 -72.367188 70.375 -69.601562 73.71875 -65.96875 L 68.59375 -60.828125 C 62.625 -66.878906 55.085938 -69.90625 45.984375 -69.90625 C 39.941406 -69.90625 34.441406 -68.519531 29.484375 -65.75 C 24.535156 -62.976562 20.660156 -59.191406 17.859375 -54.390625 C 15.054688 -49.585938 13.65625 -44.203125 13.65625 -38.234375 C 13.65625 -32.253906 15.054688 -26.863281 17.859375 -22.0625 C 20.660156 -17.257812 24.535156 -13.472656 29.484375 -10.703125 C 34.441406 -7.929688 39.941406 -6.546875 45.984375 -6.546875 C 55.160156 -6.546875 62.695312 -9.609375 68.59375 -15.734375 L 73.71875 -10.59375 C 70.375 -6.957031 66.28125 -4.171875 61.4375 -2.234375 C 56.59375 -0.304688 51.332031 0.65625 45.65625 0.65625 Z M 45.65625 0.65625 "/></g></g></g><g fill="#17224d" fill-opacity="1"><g transform="translate(862.755369, 104.969535)"><g><path d="M 60.390625 -20.421875 L 17.796875 -20.421875 L 8.625 0 L 0.21875 0 L 35.171875 -76.453125 L 43.140625 -76.453125 L 78.09375 0 L 69.578125 0 Z M 57.453125 -26.984375 L 39.09375 -68.046875 L 20.75 -26.984375 Z M 57.453125 -26.984375 "/></g></g></g><g fill="#17224d" fill-opacity="1"><g transform="translate(941.062982, 104.969535)"><g><path d="M 12.453125 -76.453125 L 20.53125 -76.453125 L 20.53125 -6.984375 L 63.34375 -6.984375 L 63.34375 0 L 12.453125 0 Z M 12.453125 -76.453125 "/></g></g></g><g fill="#17224d" fill-opacity="1"><g transform="translate(1005.391013, 104.969535)"><g/></g></g><g fill="#17224d" fill-opacity="1"><g transform="translate(1034.005501, 104.969535)"><g><path d="M 45.65625 0.65625 C 38.082031 0.65625 31.253906 -1.015625 25.171875 -4.359375 C 19.097656 -7.710938 14.328125 -12.359375 10.859375 -18.296875 C 7.398438 -24.234375 5.671875 -30.878906 5.671875 -38.234375 C 5.671875 -45.578125 7.398438 -52.21875 10.859375 -58.15625 C 14.328125 -64.09375 19.117188 -68.734375 25.234375 -72.078125 C 31.347656 -75.429688 38.191406 -77.109375 45.765625 -77.109375 C 51.441406 -77.109375 56.679688 -76.160156 61.484375 -74.265625 C 66.296875 -72.367188 70.375 -69.601562 73.71875 -65.96875 L 68.59375 -60.828125 C 62.625 -66.878906 55.085938 -69.90625 45.984375 -69.90625 C 39.941406 -69.90625 34.441406 -68.519531 29.484375 -65.75 C 24.535156 -62.976562 20.660156 -59.191406 17.859375 -54.390625 C 15.054688 -49.585938 13.65625 -44.203125 13.65625 -38.234375 C 13.65625 -32.253906 15.054688 -26.863281 17.859375 -22.0625 C 20.660156 -17.257812 24.535156 -13.472656 29.484375 -10.703125 C 34.441406 -7.929688 39.941406 -6.546875 45.984375 -6.546875 C 55.160156 -6.546875 62.695312 -9.609375 68.59375 -15.734375 L 73.71875 -10.59375 C 70.375 -6.957031 66.28125 -4.171875 61.4375 -2.234375 C 56.59375 -0.304688 51.332031 0.65625 45.65625 0.65625 Z M 45.65625 0.65625 "/></g></g></g><g fill="#17224d" fill-opacity="1"><g transform="translate(1110.893284, 104.969535)"><g><path d="M 38.65625 -26.4375 L 38.65625 0 L 30.6875 0 L 30.6875 -26.4375 L 0.109375 -76.453125 L 8.734375 -76.453125 L 34.953125 -33.53125 L 61.15625 -76.453125 L 69.25 -76.453125 Z M 38.65625 -26.4375 "/></g></g></g><g fill="#17224d" fill-opacity="1"><g transform="translate(1178.606855, 104.969535)"><g><path d="M 60.609375 -39.421875 C 65.640625 -38.335938 69.519531 -36.171875 72.25 -32.921875 C 74.976562 -29.679688 76.34375 -25.515625 76.34375 -20.421875 C 76.34375 -13.867188 73.921875 -8.828125 69.078125 -5.296875 C 64.234375 -1.765625 57.082031 0 47.625 0 L 12.453125 0 L 12.453125 -76.453125 L 45.4375 -76.453125 C 53.957031 -76.453125 60.5625 -74.738281 65.25 -71.3125 C 69.945312 -67.894531 72.296875 -63.054688 72.296875 -56.796875 C 72.296875 -52.566406 71.257812 -48.976562 69.1875 -46.03125 C 67.113281 -43.082031 64.253906 -40.878906 60.609375 -39.421875 Z M 20.53125 -69.796875 L 20.53125 -42.046875 L 44.890625 -42.046875 C 51.078125 -42.046875 55.84375 -43.226562 59.1875 -45.59375 C 62.539062 -47.96875 64.21875 -51.410156 64.21875 -55.921875 C 64.21875 -60.429688 62.539062 -63.867188 59.1875 -66.234375 C 55.84375 -68.609375 51.078125 -69.796875 44.890625 -69.796875 Z M 47.515625 -6.65625 C 54.359375 -6.65625 59.523438 -7.820312 63.015625 -10.15625 C 66.515625 -12.488281 68.265625 -16.128906 68.265625 -21.078125 C 68.265625 -30.617188 61.347656 -35.390625 47.515625 -35.390625 L 20.53125 -35.390625 L 20.53125 -6.65625 Z M 47.515625 -6.65625 "/></g></g></g><g fill="#17224d" fill-opacity="1"><g transform="translate(1260.955512, 104.969535)"><g><path d="M 66.515625 -6.984375 L 66.515625 0 L 12.453125 0 L 12.453125 -76.453125 L 64.875 -76.453125 L 64.875 -69.46875 L 20.53125 -69.46875 L 20.53125 -42.265625 L 60.078125 -42.265625 L 60.078125 -35.390625 L 20.53125 -35.390625 L 20.53125 -6.984375 Z M 66.515625 -6.984375 "/></g></g></g><g fill="#17224d" fill-opacity="1"><g transform="translate(1334.020782, 104.969535)"><g><path d="M 64.65625 0 L 47.1875 -24.578125 C 45.21875 -24.359375 43.175781 -24.25 41.0625 -24.25 L 20.53125 -24.25 L 20.53125 0 L 12.453125 0 L 12.453125 -76.453125 L 41.0625 -76.453125 C 50.820312 -76.453125 58.46875 -74.117188 64 -69.453125 C 69.53125 -64.796875 72.296875 -58.390625 72.296875 -50.234375 C 72.296875 -44.265625 70.785156 -39.222656 67.765625 -35.109375 C 64.742188 -30.992188 60.429688 -28.03125 54.828125 -26.21875 L 73.5 0 Z M 40.84375 -31.125 C 48.414062 -31.125 54.203125 -32.796875 58.203125 -36.140625 C 62.210938 -39.492188 64.21875 -44.191406 64.21875 -50.234375 C 64.21875 -56.429688 62.210938 -61.1875 58.203125 -64.5 C 54.203125 -67.8125 48.414062 -69.46875 40.84375 -69.46875 L 20.53125 -69.46875 L 20.53125 -31.125 Z M 40.84375 -31.125 "/></g></g></g><g fill="#17224d" fill-opacity="1"><g transform="translate(1412.983631, 104.969535)"><g><path d="M 33.53125 0.65625 C 27.851562 0.65625 22.410156 -0.253906 17.203125 -2.078125 C 11.992188 -3.898438 7.972656 -6.300781 5.140625 -9.28125 L 8.296875 -15.515625 C 11.066406 -12.742188 14.742188 -10.5 19.328125 -8.78125 C 23.921875 -7.070312 28.65625 -6.21875 33.53125 -6.21875 C 40.375 -6.21875 45.503906 -7.472656 48.921875 -9.984375 C 52.347656 -12.503906 54.0625 -15.765625 54.0625 -19.765625 C 54.0625 -22.828125 53.132812 -25.265625 51.28125 -27.078125 C 49.425781 -28.898438 47.148438 -30.300781 44.453125 -31.28125 C 41.753906 -32.269531 38.003906 -33.347656 33.203125 -34.515625 C 27.453125 -35.972656 22.863281 -37.375 19.4375 -38.71875 C 16.019531 -40.0625 13.085938 -42.117188 10.640625 -44.890625 C 8.203125 -47.660156 6.984375 -51.410156 6.984375 -56.140625 C 6.984375 -59.992188 8.003906 -63.503906 10.046875 -66.671875 C 12.085938 -69.835938 15.21875 -72.367188 19.4375 -74.265625 C 23.664062 -76.160156 28.910156 -77.109375 35.171875 -77.109375 C 39.535156 -77.109375 43.8125 -76.503906 48 -75.296875 C 52.1875 -74.097656 55.8125 -72.445312 58.875 -70.34375 L 56.140625 -63.890625 C 52.929688 -66.003906 49.503906 -67.585938 45.859375 -68.640625 C 42.222656 -69.703125 38.660156 -70.234375 35.171875 -70.234375 C 28.472656 -70.234375 23.429688 -68.9375 20.046875 -66.34375 C 16.660156 -63.757812 14.96875 -60.429688 14.96875 -56.359375 C 14.96875 -53.296875 15.894531 -50.835938 17.75 -48.984375 C 19.601562 -47.128906 21.929688 -45.707031 24.734375 -44.71875 C 27.535156 -43.738281 31.304688 -42.664062 36.046875 -41.5 C 41.648438 -40.113281 46.179688 -38.75 49.640625 -37.40625 C 53.097656 -36.0625 56.023438 -34.023438 58.421875 -31.296875 C 60.828125 -28.566406 62.03125 -24.867188 62.03125 -20.203125 C 62.03125 -16.347656 60.992188 -12.835938 58.921875 -9.671875 C 56.847656 -6.503906 53.660156 -3.988281 49.359375 -2.125 C 45.066406 -0.269531 39.789062 0.65625 33.53125 0.65625 Z M 33.53125 0.65625 "/></g></g></g><g fill="#17224d" fill-opacity="1"><g transform="translate(1480.151321, 104.969535)"><g><path d="M 66.515625 -6.984375 L 66.515625 0 L 12.453125 0 L 12.453125 -76.453125 L 64.875 -76.453125 L 64.875 -69.46875 L 20.53125 -69.46875 L 20.53125 -42.265625 L 60.078125 -42.265625 L 60.078125 -35.390625 L 20.53125 -35.390625 L 20.53125 -6.984375 Z M 66.515625 -6.984375 "/></g></g></g><g fill="#17224d" fill-opacity="1"><g transform="translate(1552.779617, 104.969535)"><g><path d="M 45.65625 0.65625 C 38.082031 0.65625 31.253906 -1.015625 25.171875 -4.359375 C 19.097656 -7.710938 14.328125 -12.359375 10.859375 -18.296875 C 7.398438 -24.234375 5.671875 -30.878906 5.671875 -38.234375 C 5.671875 -45.578125 7.398438 -52.21875 10.859375 -58.15625 C 14.328125 -64.09375 19.117188 -68.734375 25.234375 -72.078125 C 31.347656 -75.429688 38.191406 -77.109375 45.765625 -77.109375 C 51.441406 -77.109375 56.679688 -76.160156 61.484375 -74.265625 C 66.296875 -72.367188 70.375 -69.601562 73.71875 -65.96875 L 68.59375 -60.828125 C 62.625 -66.878906 55.085938 -69.90625 45.984375 -69.90625 C 39.941406 -69.90625 34.441406 -68.519531 29.484375 -65.75 C 24.535156 -62.976562 20.660156 -59.191406 17.859375 -54.390625 C 15.054688 -49.585938 13.65625 -44.203125 13.65625 -38.234375 C 13.65625 -32.253906 15.054688 -26.863281 17.859375 -22.0625 C 20.660156 -17.257812 24.535156 -13.472656 29.484375 -10.703125 C 34.441406 -7.929688 39.941406 -6.546875 45.984375 -6.546875 C 55.160156 -6.546875 62.695312 -9.609375 68.59375 -15.734375 L 73.71875 -10.59375 C 70.375 -6.957031 66.28125 -4.171875 61.4375 -2.234375 C 56.59375 -0.304688 51.332031 0.65625 45.65625 0.65625 Z M 45.65625 0.65625 "/></g></g></g><g fill="#17224d" fill-opacity="1"><g transform="translate(1631.087229, 104.969535)"><g><path d="M 43.25 0.65625 C 33.34375 0.65625 25.625 -2.179688 20.09375 -7.859375 C 14.5625 -13.546875 11.796875 -21.8125 11.796875 -32.65625 L 11.796875 -76.453125 L 19.875 -76.453125 L 19.875 -32.984375 C 19.875 -24.097656 21.875 -17.46875 25.875 -13.09375 C 29.882812 -8.726562 35.675781 -6.546875 43.25 -6.546875 C 50.894531 -6.546875 56.71875 -8.726562 60.71875 -13.09375 C 64.726562 -17.46875 66.734375 -24.097656 66.734375 -32.984375 L 66.734375 -76.453125 L 74.59375 -76.453125 L 74.59375 -32.65625 C 74.59375 -21.8125 71.84375 -13.546875 66.34375 -7.859375 C 60.851562 -2.179688 53.15625 0.65625 43.25 0.65625 Z M 43.25 0.65625 "/></g></g></g><g fill="#17224d" fill-opacity="1"><g transform="translate(1717.586019, 104.969535)"><g><path d="M 64.65625 0 L 47.1875 -24.578125 C 45.21875 -24.359375 43.175781 -24.25 41.0625 -24.25 L 20.53125 -24.25 L 20.53125 0 L 12.453125 0 L 12.453125 -76.453125 L 41.0625 -76.453125 C 50.820312 -76.453125 58.46875 -74.117188 64 -69.453125 C 69.53125 -64.796875 72.296875 -58.390625 72.296875 -50.234375 C 72.296875 -44.265625 70.785156 -39.222656 67.765625 -35.109375 C 64.742188 -30.992188 60.429688 -28.03125 54.828125 -26.21875 L 73.5 0 Z M 40.84375 -31.125 C 48.414062 -31.125 54.203125 -32.796875 58.203125 -36.140625 C 62.210938 -39.492188 64.21875 -44.191406 64.21875 -50.234375 C 64.21875 -56.429688 62.210938 -61.1875 58.203125 -64.5 C 54.203125 -67.8125 48.414062 -69.46875 40.84375 -69.46875 L 20.53125 -69.46875 L 20.53125 -31.125 Z M 40.84375 -31.125 "/></g></g></g><g fill="#17224d" fill-opacity="1"><g transform="translate(1796.549047, 104.969535)"><g><path d="M 12.453125 -76.453125 L 20.53125 -76.453125 L 20.53125 0 L 12.453125 0 Z M 12.453125 -76.453125 "/></g></g></g><g fill="#17224d" fill-opacity="1"><g transform="translate(1829.532109, 104.969535)"><g><path d="M 27.3125 -69.46875 L 0.4375 -69.46875 L 0.4375 -76.453125 L 62.25 -76.453125 L 62.25 -69.46875 L 35.390625 -69.46875 L 35.390625 0 L 27.3125 0 Z M 27.3125 -69.46875 "/></g></g></g><g fill="#17224d" fill-opacity="1"><g transform="translate(1891.675899, 104.969535)"><g><path d="M 38.65625 -26.4375 L 38.65625 0 L 30.6875 0 L 30.6875 -26.4375 L 0.109375 -76.453125 L 8.734375 -76.453125 L 34.953125 -33.53125 L 61.15625 -76.453125 L 69.25 -76.453125 Z M 38.65625 -26.4375 "/></g></g></g><g fill="#17224d" fill-opacity="1"><g transform="translate(1961.027831, 104.969535)"><g/></g></g><g fill="#d6a43f" fill-opacity="1"><g transform="translate(1989.651269, 104.969535)"><g><path d="M 67.171875 1.203125 L 56.578125 -9.71875 C 50.097656 -2.800781 41.578125 0.65625 31.015625 0.65625 C 26.066406 0.65625 21.644531 -0.160156 17.75 -1.796875 C 13.851562 -3.441406 10.8125 -5.738281 8.625 -8.6875 C 6.445312 -11.632812 5.359375 -15 5.359375 -18.78125 C 5.359375 -23.375 6.8125 -27.488281 9.71875 -31.125 C 12.632812 -34.769531 17.585938 -38.59375 24.578125 -42.59375 C 20.929688 -46.382812 18.414062 -49.609375 17.03125 -52.265625 C 15.65625 -54.921875 14.96875 -57.738281 14.96875 -60.71875 C 14.96875 -65.601562 16.710938 -69.535156 20.203125 -72.515625 C 23.703125 -75.503906 28.398438 -77 34.296875 -77 C 39.753906 -77 44.082031 -75.648438 47.28125 -72.953125 C 50.488281 -70.265625 52.09375 -66.550781 52.09375 -61.8125 C 52.09375 -58.03125 50.816406 -54.628906 48.265625 -51.609375 C 45.722656 -48.585938 41.320312 -45.253906 35.0625 -41.609375 L 56.03125 -19.984375 C 58.363281 -24.140625 60.070312 -29.054688 61.15625 -34.734375 L 67.5 -32.765625 C 66.113281 -25.921875 63.851562 -20.0625 60.71875 -15.1875 L 71.640625 -3.9375 Z M 34.296875 -71.203125 C 30.503906 -71.203125 27.535156 -70.253906 25.390625 -68.359375 C 23.242188 -66.472656 22.171875 -63.960938 22.171875 -60.828125 C 22.171875 -58.578125 22.753906 -56.429688 23.921875 -54.390625 C 25.085938 -52.347656 27.378906 -49.582031 30.796875 -46.09375 C 36.328125 -49.289062 40.148438 -52.019531 42.265625 -54.28125 C 44.378906 -56.539062 45.4375 -59.015625 45.4375 -61.703125 C 45.4375 -64.617188 44.453125 -66.929688 42.484375 -68.640625 C 40.515625 -70.347656 37.785156 -71.203125 34.296875 -71.203125 Z M 31.453125 -5.78125 C 39.898438 -5.78125 46.742188 -8.660156 51.984375 -14.421875 L 28.9375 -38.125 C 22.894531 -34.695312 18.726562 -31.597656 16.4375 -28.828125 C 14.144531 -26.066406 13 -22.972656 13 -19.546875 C 13 -15.398438 14.691406 -12.066406 18.078125 -9.546875 C 21.460938 -7.035156 25.921875 -5.78125 31.453125 -5.78125 Z M 31.453125 -5.78125 "/></g></g></g><g fill="#17224d" fill-opacity="1"><g transform="translate(2062.726654, 104.969535)"><g/></g></g><g fill="#17224d" fill-opacity="1"><g transform="translate(2091.341153, 104.969535)"><g><path d="M 41.0625 -76.453125 C 50.820312 -76.453125 58.46875 -74.117188 64 -69.453125 C 69.53125 -64.796875 72.296875 -58.390625 72.296875 -50.234375 C 72.296875 -42.085938 69.53125 -35.703125 64 -31.078125 C 58.46875 -26.453125 50.820312 -24.140625 41.0625 -24.140625 L 20.53125 -24.140625 L 20.53125 0 L 12.453125 0 L 12.453125 -76.453125 Z M 40.84375 -31.234375 C 48.414062 -31.234375 54.203125 -32.890625 58.203125 -36.203125 C 62.210938 -39.515625 64.21875 -44.191406 64.21875 -50.234375 C 64.21875 -56.429688 62.210938 -61.1875 58.203125 -64.5 C 54.203125 -67.8125 48.414062 -69.46875 40.84375 -69.46875 L 20.53125 -69.46875 L 20.53125 -31.234375 Z M 40.84375 -31.234375 "/></g></g></g><g fill="#17224d" fill-opacity="1"><g transform="translate(2168.665798, 104.969535)"><g><path d="M 64.65625 0 L 47.1875 -24.578125 C 45.21875 -24.359375 43.175781 -24.25 41.0625 -24.25 L 20.53125 -24.25 L 20.53125 0 L 12.453125 0 L 12.453125 -76.453125 L 41.0625 -76.453125 C 50.820312 -76.453125 58.46875 -74.117188 64 -69.453125 C 69.53125 -64.796875 72.296875 -58.390625 72.296875 -50.234375 C 72.296875 -44.265625 70.785156 -39.222656 67.765625 -35.109375 C 64.742188 -30.992188 60.429688 -28.03125 54.828125 -26.21875 L 73.5 0 Z M 40.84375 -31.125 C 48.414062 -31.125 54.203125 -32.796875 58.203125 -36.140625 C 62.210938 -39.492188 64.21875 -44.191406 64.21875 -50.234375 C 64.21875 -56.429688 62.210938 -61.1875 58.203125 -64.5 C 54.203125 -67.8125 48.414062 -69.46875 40.84375 -69.46875 L 20.53125 -69.46875 L 20.53125 -31.125 Z M 40.84375 -31.125 "/></g></g></g><g fill="#17224d" fill-opacity="1"><g transform="translate(2247.628714, 104.969535)"><g><path d="M 12.453125 -76.453125 L 20.53125 -76.453125 L 20.53125 0 L 12.453125 0 Z M 12.453125 -76.453125 "/></g></g></g><g fill="#17224d" fill-opacity="1"><g transform="translate(2279.738086, 104.969535)"><g><path d="M 76.015625 -76.453125 L 42.15625 0 L 34.1875 0 L 0.328125 -76.453125 L 9.0625 -76.453125 L 38.328125 -10.046875 L 67.828125 -76.453125 Z M 76.015625 -76.453125 "/></g></g></g><g fill="#17224d" fill-opacity="1"><g transform="translate(2352.038718, 104.969535)"><g><path d="M 60.390625 -20.421875 L 17.796875 -20.421875 L 8.625 0 L 0.21875 0 L 35.171875 -76.453125 L 43.140625 -76.453125 L 78.09375 0 L 69.578125 0 Z M 57.453125 -26.984375 L 39.09375 -68.046875 L 20.75 -26.984375 Z M 57.453125 -26.984375 "/></g></g></g><g fill="#17224d" fill-opacity="1"><g transform="translate(2429.254143, 104.969535)"><g><path d="M 45.65625 0.65625 C 38.082031 0.65625 31.253906 -1.015625 25.171875 -4.359375 C 19.097656 -7.710938 14.328125 -12.359375 10.859375 -18.296875 C 7.398438 -24.234375 5.671875 -30.878906 5.671875 -38.234375 C 5.671875 -45.578125 7.398438 -52.21875 10.859375 -58.15625 C 14.328125 -64.09375 19.117188 -68.734375 25.234375 -72.078125 C 31.347656 -75.429688 38.191406 -77.109375 45.765625 -77.109375 C 51.441406 -77.109375 56.679688 -76.160156 61.484375 -74.265625 C 66.296875 -72.367188 70.375 -69.601562 73.71875 -65.96875 L 68.59375 -60.828125 C 62.625 -66.878906 55.085938 -69.90625 45.984375 -69.90625 C 39.941406 -69.90625 34.441406 -68.519531 29.484375 -65.75 C 24.535156 -62.976562 20.660156 -59.191406 17.859375 -54.390625 C 15.054688 -49.585938 13.65625 -44.203125 13.65625 -38.234375 C 13.65625 -32.253906 15.054688 -26.863281 17.859375 -22.0625 C 20.660156 -17.257812 24.535156 -13.472656 29.484375 -10.703125 C 34.441406 -7.929688 39.941406 -6.546875 45.984375 -6.546875 C 55.160156 -6.546875 62.695312 -9.609375 68.59375 -15.734375 L 73.71875 -10.59375 C 70.375 -6.957031 66.28125 -4.171875 61.4375 -2.234375 C 56.59375 -0.304688 51.332031 0.65625 45.65625 0.65625 Z M 45.65625 0.65625 "/></g></g></g><g fill="#17224d" fill-opacity="1"><g transform="translate(2506.141903, 104.969535)"><g><path d="M 38.65625 -26.4375 L 38.65625 0 L 30.6875 0 L 30.6875 -26.4375 L 0.109375 -76.453125 L 8.734375 -76.453125 L 34.953125 -33.53125 L 61.15625 -76.453125 L 69.25 -76.453125 Z M 38.65625 -26.4375 "/></g></g></g></g></g></g></g></g></svg>